# xmcd
#
# Track frame offsets:
#	150
#	18787
#	37357
#	55555
#	79782
#	97750
#	115922
#	135475
#	153505
#	172470
#
# Disc length: 2540 seconds
#
# Revision: 4
# Processed by: cddbd v1.5.2PL0 Copyright (c) Steve Scherf et al.
# Submitted via: audiograbber 1.83.01
#
DISCID=7a09ea0a
DTITLE=Johnston, Sabrina - Peace
DYEAR=1992
DGENRE=Soul
TTITLE0=Peace
TTITLE1=Friendship
TTITLE2=Don't hide your love
TTITLE3=Yours that kind of love
TTITLE4=Anniversary lover
TTITLE5=I wanna sing
TTITLE6=Glory
TTITLE7=We need each other
TTITLE8=Give it to me
TTITLE9=Hyway 95
EXTD=
EXTT0=
EXTT1=
EXTT2=
EXTT3=
EXTT4=
EXTT5=
EXTT6=
EXTT7=
EXTT8=
EXTT9=
PLAYORDER=
